<svg width="22" height="32" viewBox="0 0 22 32" fill="none" xmlns="http://www.w3.org/2000/svg">
<g filter="url(#filter0_ii)">
<path d="M7.6514 16.1367C7.26087 16.5272 6.62771 16.5272 6.23718 16.1367L3.86332 13.7628C3.4728 13.3723 3.4728 12.7391 3.86332 12.3486L7.44886 8.76309C7.83938 8.37257 7.83938 7.7394 7.44885 7.34888L6.81969 6.71971C6.18799 6.08802 6.63853 5.00808 7.53187 5.01262L13.9599 5.04525C14.5082 5.04803 14.952 5.49184 14.9548 6.04016L14.9874 12.4681C14.9919 13.3615 13.912 13.812 13.2803 13.1803L12.6511 12.5512C12.2606 12.1606 11.6275 12.1606 11.2369 12.5512L7.6514 16.1367Z" fill="#007BFF"/>
</g>
<g filter="url(#filter1_ii)">
<path d="M14.3486 15.8634C14.7391 15.4728 15.3723 15.4728 15.7628 15.8634L18.1367 18.2372C18.5272 18.6277 18.5272 19.2609 18.1367 19.6514L14.5511 23.237C14.1606 23.6275 14.1606 24.2607 14.5511 24.6512L15.1803 25.2803C15.812 25.912 15.3615 26.992 14.4681 26.9874L8.04014 26.9548C7.49182 26.952 7.04801 26.5082 7.04523 25.9599L7.0126 19.5319C7.00806 18.6386 8.08799 18.188 8.71969 18.8197L9.34886 19.4489C9.73938 19.8394 10.3725 19.8394 10.7631 19.4489L14.3486 15.8634Z" fill="#007BFF"/>
</g>
<defs>
<filter id="filter0_ii" x="1.11142" y="1.39929" width="18.4893" height="18.4893" filterUnits="userSpaceOnUse" color-interpolation-filters="sRGB">
<feFlood flood-opacity="0" result="BackgroundImageFix"/>
<feBlend mode="normal" in="SourceGraphic" in2="BackgroundImageFix" result="shape"/>
<feColorMatrix in="SourceAlpha" type="matrix" values="0 0 0 0 0 0 0 0 0 0 0 0 0 0 0 0 0 0 127 0" result="hardAlpha"/>
<feOffset dx="1" dy="1"/>
<feGaussianBlur stdDeviation="1.5"/>
<feComposite in2="hardAlpha" operator="arithmetic" k2="-1" k3="1"/>
<feColorMatrix type="matrix" values="0 0 0 0 0.147813 0 0 0 0 0.169527 0 0 0 0 0.275 0 0 0 0.2 0"/>
<feBlend mode="normal" in2="shape" result="effect1_innerShadow"/>
<feColorMatrix in="SourceAlpha" type="matrix" values="0 0 0 0 0 0 0 0 0 0 0 0 0 0 0 0 0 0 127 0" result="hardAlpha"/>
<feOffset dx="0.5" dy="0.5"/>
<feGaussianBlur stdDeviation="0.25"/>
<feComposite in2="hardAlpha" operator="arithmetic" k2="-1" k3="1"/>
<feColorMatrix type="matrix" values="0 0 0 0 0.0577257 0 0 0 0 0.0724103 0 0 0 0 0.145833 0 0 0 0.15 0"/>
<feBlend mode="normal" in2="effect1_innerShadow" result="effect2_innerShadow"/>
</filter>
<filter id="filter1_ii" x="3.39927" y="13.1115" width="18.4893" height="18.4893" filterUnits="userSpaceOnUse" color-interpolation-filters="sRGB">
<feFlood flood-opacity="0" result="BackgroundImageFix"/>
<feBlend mode="normal" in="SourceGraphic" in2="BackgroundImageFix" result="shape"/>
<feColorMatrix in="SourceAlpha" type="matrix" values="0 0 0 0 0 0 0 0 0 0 0 0 0 0 0 0 0 0 127 0" result="hardAlpha"/>
<feOffset dx="1" dy="1"/>
<feGaussianBlur stdDeviation="1.5"/>
<feComposite in2="hardAlpha" operator="arithmetic" k2="-1" k3="1"/>
<feColorMatrix type="matrix" values="0 0 0 0 0.147813 0 0 0 0 0.169527 0 0 0 0 0.275 0 0 0 0.2 0"/>
<feBlend mode="normal" in2="shape" result="effect1_innerShadow"/>
<feColorMatrix in="SourceAlpha" type="matrix" values="0 0 0 0 0 0 0 0 0 0 0 0 0 0 0 0 0 0 127 0" result="hardAlpha"/>
<feOffset dx="0.5" dy="0.5"/>
<feGaussianBlur stdDeviation="0.25"/>
<feComposite in2="hardAlpha" operator="arithmetic" k2="-1" k3="1"/>
<feColorMatrix type="matrix" values="0 0 0 0 0.0577257 0 0 0 0 0.0724103 0 0 0 0 0.145833 0 0 0 0.15 0"/>
<feBlend mode="normal" in2="effect1_innerShadow" result="effect2_innerShadow"/>
</filter>
</defs>
</svg>
